<svg width="24" height="24" viewBox="0 0 24 24" fill="none" xmlns="http://www.w3.org/2000/svg">
  <path d="M17.0468 12.2032C17.0259 9.39087 19.3747 8.03115 19.4754 7.96397C18.1611 6.09645 16.1384 5.85162 15.4241 5.83131C13.7181 5.65534 12.0711 6.85928 11.2021 6.85928C10.3144 6.85928 9.00156 5.85162 7.55142 5.88208C5.66845 5.91254 3.91236 6.98387 2.95547 8.63897C0.961651 12.0204 2.44146 17.0138 4.35497 19.7752C5.31186 21.1248 6.42265 22.6477 7.88295 22.5969C9.30271 22.5461 9.85726 21.6967 11.5633 21.6967C13.2693 21.6967 13.7739 22.5969 15.2593 22.5664C16.7949 22.5461 17.7769 21.1959 18.7035 19.8362C19.8143 18.2928 20.2691 16.7801 20.2894 16.7191C20.2489 16.7089 17.0671 15.5761 17.0468 12.2032Z" fill="white"/>
  <path d="M14.4265 4.0637C15.2042 3.12541 15.7384 1.83406 15.6073 0.522217C14.4874 0.573017 13.1123 1.26931 12.3142 2.18728C11.6 3.00485 10.9567 4.33682 11.1081 5.61802C12.3548 5.71551 13.6287 4.98161 14.4265 4.0637Z" fill="white"/>
</svg> 